<?xml version="1.0" encoding="UTF-8" ?>
<svg version="1.1" width="32" height="32" xmlns="http://www.w3.org/2000/svg" shape-rendering="crispEdges">
<rect x="8" y="4" width="1" height="1" fill="#FFFFFF" />
<rect x="9" y="4" width="1" height="1" fill="#FFFFFF" />
<rect x="10" y="4" width="1" height="1" fill="#FFFFFF" />
<rect x="11" y="4" width="1" height="1" fill="#FFFFFF" />
<rect x="12" y="4" width="1" height="1" fill="#FFFFFF" />
<rect x="13" y="4" width="1" height="1" fill="#FFFFFF" />
<rect x="14" y="4" width="1" height="1" fill="#FFFFFF" />
<rect x="15" y="4" width="1" height="1" fill="#FFFFFF" />
<rect x="16" y="4" width="1" height="1" fill="#FFFFFF" />
<rect x="17" y="4" width="1" height="1" fill="#FFFFFF" />
<rect x="18" y="4" width="1" height="1" fill="#FFFFFF" />
<rect x="19" y="4" width="1" height="1" fill="#FFFFFF" />
<rect x="20" y="4" width="1" height="1" fill="#FFFFFF" />
<rect x="21" y="4" width="1" height="1" fill="#FFFFFF" />
<rect x="22" y="4" width="1" height="1" fill="#FFFFFF" />
<rect x="7" y="5" width="1" height="1" fill="#FFFFFF" />
<rect x="8" y="5" width="1" height="1" fill="#FFFFFF" />
<rect x="22" y="5" width="1" height="1" fill="#FFFFFF" />
<rect x="23" y="5" width="1" height="1" fill="#FFFFFF" />
<rect x="7" y="6" width="1" height="1" fill="#FFFFFF" />
<rect x="8" y="6" width="1" height="1" fill="#FFFFFF" />
<rect x="9" y="6" width="1" height="1" fill="#FFFFFF" />
<rect x="10" y="6" width="1" height="1" fill="#FFFFFF" />
<rect x="11" y="6" width="1" height="1" fill="#FFFFFF" />
<rect x="12" y="6" width="1" height="1" fill="#FFFFFF" />
<rect x="13" y="6" width="1" height="1" fill="#FFFFFF" />
<rect x="14" y="6" width="1" height="1" fill="#FFFFFF" />
<rect x="15" y="6" width="1" height="1" fill="#FFFFFF" />
<rect x="16" y="6" width="1" height="1" fill="#FFFFFF" />
<rect x="17" y="6" width="1" height="1" fill="#FFFFFF" />
<rect x="18" y="6" width="1" height="1" fill="#FFFFFF" />
<rect x="19" y="6" width="1" height="1" fill="#FFFFFF" />
<rect x="20" y="6" width="1" height="1" fill="#FFFFFF" />
<rect x="21" y="6" width="1" height="1" fill="#FFFFFF" />
<rect x="22" y="6" width="1" height="1" fill="#FFFFFF" />
<rect x="23" y="6" width="1" height="1" fill="#FFFFFF" />
<rect x="8" y="7" width="1" height="1" fill="#FFFFFF" />
<rect x="9" y="7" width="1" height="1" fill="#FFFFFF" />
<rect x="10" y="7" width="1" height="1" fill="#FFFFFF" />
<rect x="20" y="7" width="1" height="1" fill="#FFFFFF" />
<rect x="21" y="7" width="1" height="1" fill="#FFFFFF" />
<rect x="22" y="7" width="1" height="1" fill="#FFFFFF" />
<rect x="8" y="8" width="1" height="1" fill="#FFFFFF" />
<rect x="9" y="8" width="1" height="1" fill="#FFFFFF" />
<rect x="21" y="8" width="1" height="1" fill="#FFFFFF" />
<rect x="22" y="8" width="1" height="1" fill="#FFFFFF" />
<rect x="8" y="9" width="1" height="1" fill="#FFFFFF" />
<rect x="9" y="9" width="1" height="1" fill="#FFFFFF" />
<rect x="21" y="9" width="1" height="1" fill="#FFFFFF" />
<rect x="22" y="9" width="1" height="1" fill="#FFFFFF" />
<rect x="8" y="10" width="1" height="1" fill="#FFFFFF" />
<rect x="9" y="10" width="1" height="1" fill="#FFFFFF" />
<rect x="17" y="10" width="1" height="1" fill="#FFFFFF" />
<rect x="18" y="10" width="1" height="1" fill="#FFFFFF" />
<rect x="19" y="10" width="1" height="1" fill="#FFFFFF" />
<rect x="21" y="10" width="1" height="1" fill="#FFFFFF" />
<rect x="22" y="10" width="1" height="1" fill="#FFFFFF" />
<rect x="9" y="11" width="1" height="1" fill="#FFFFFF" />
<rect x="10" y="11" width="1" height="1" fill="#FFFFFF" />
<rect x="14" y="11" width="1" height="1" fill="#FFFFFF" />
<rect x="15" y="11" width="1" height="1" fill="#FFFFFF" />
<rect x="16" y="11" width="1" height="1" fill="#FFFFFF" />
<rect x="17" y="11" width="1" height="1" fill="#FFFFFF" />
<rect x="18" y="11" width="1" height="1" fill="#FFFFFF" />
<rect x="20" y="11" width="1" height="1" fill="#FFFFFF" />
<rect x="21" y="11" width="1" height="1" fill="#FFFFFF" />
<rect x="10" y="12" width="1" height="1" fill="#FFFFFF" />
<rect x="11" y="12" width="1" height="1" fill="#FFFFFF" />
<rect x="13" y="12" width="1" height="1" fill="#FFFFFF" />
<rect x="14" y="12" width="1" height="1" fill="#FFFFFF" />
<rect x="15" y="12" width="1" height="1" fill="#FFFFFF" />
<rect x="16" y="12" width="1" height="1" fill="#FFFFFF" />
<rect x="17" y="12" width="1" height="1" fill="#FFFFFF" />
<rect x="19" y="12" width="1" height="1" fill="#FFFFFF" />
<rect x="20" y="12" width="1" height="1" fill="#FFFFFF" />
<rect x="11" y="13" width="1" height="1" fill="#FFFFFF" />
<rect x="12" y="13" width="1" height="1" fill="#FFFFFF" />
<rect x="14" y="13" width="1" height="1" fill="#FFFFFF" />
<rect x="15" y="13" width="1" height="1" fill="#FFFFFF" />
<rect x="16" y="13" width="1" height="1" fill="#FFFFFF" />
<rect x="18" y="13" width="1" height="1" fill="#FFFFFF" />
<rect x="19" y="13" width="1" height="1" fill="#FFFFFF" />
<rect x="12" y="14" width="1" height="1" fill="#FFFFFF" />
<rect x="13" y="14" width="1" height="1" fill="#FFFFFF" />
<rect x="15" y="14" width="1" height="1" fill="#FFFFFF" />
<rect x="17" y="14" width="1" height="1" fill="#FFFFFF" />
<rect x="18" y="14" width="1" height="1" fill="#FFFFFF" />
<rect x="13" y="15" width="1" height="1" fill="#FFFFFF" />
<rect x="15" y="15" width="1" height="1" fill="#FFFFFF" />
<rect x="17" y="15" width="1" height="1" fill="#FFFFFF" />
<rect x="13" y="16" width="1" height="1" fill="#FFFFFF" />
<rect x="15" y="16" width="1" height="1" fill="#FFFFFF" />
<rect x="17" y="16" width="1" height="1" fill="#FFFFFF" />
<rect x="12" y="17" width="1" height="1" fill="#FFFFFF" />
<rect x="13" y="17" width="1" height="1" fill="#FFFFFF" />
<rect x="15" y="17" width="1" height="1" fill="#FFFFFF" />
<rect x="17" y="17" width="1" height="1" fill="#FFFFFF" />
<rect x="18" y="17" width="1" height="1" fill="#FFFFFF" />
<rect x="11" y="18" width="1" height="1" fill="#FFFFFF" />
<rect x="12" y="18" width="1" height="1" fill="#FFFFFF" />
<rect x="15" y="18" width="1" height="1" fill="#FFFFFF" />
<rect x="18" y="18" width="1" height="1" fill="#FFFFFF" />
<rect x="19" y="18" width="1" height="1" fill="#FFFFFF" />
<rect x="10" y="19" width="1" height="1" fill="#FFFFFF" />
<rect x="11" y="19" width="1" height="1" fill="#FFFFFF" />
<rect x="15" y="19" width="1" height="1" fill="#FFFFFF" />
<rect x="19" y="19" width="1" height="1" fill="#FFFFFF" />
<rect x="20" y="19" width="1" height="1" fill="#FFFFFF" />
<rect x="9" y="20" width="1" height="1" fill="#FFFFFF" />
<rect x="10" y="20" width="1" height="1" fill="#FFFFFF" />
<rect x="14" y="20" width="1" height="1" fill="#FFFFFF" />
<rect x="15" y="20" width="1" height="1" fill="#FFFFFF" />
<rect x="16" y="20" width="1" height="1" fill="#FFFFFF" />
<rect x="17" y="20" width="1" height="1" fill="#FFFFFF" />
<rect x="20" y="20" width="1" height="1" fill="#FFFFFF" />
<rect x="21" y="20" width="1" height="1" fill="#FFFFFF" />
<rect x="8" y="21" width="1" height="1" fill="#FFFFFF" />
<rect x="9" y="21" width="1" height="1" fill="#FFFFFF" />
<rect x="12" y="21" width="1" height="1" fill="#FFFFFF" />
<rect x="13" y="21" width="1" height="1" fill="#FFFFFF" />
<rect x="14" y="21" width="1" height="1" fill="#FFFFFF" />
<rect x="15" y="21" width="1" height="1" fill="#FFFFFF" />
<rect x="16" y="21" width="1" height="1" fill="#FFFFFF" />
<rect x="17" y="21" width="1" height="1" fill="#FFFFFF" />
<rect x="18" y="21" width="1" height="1" fill="#FFFFFF" />
<rect x="21" y="21" width="1" height="1" fill="#FFFFFF" />
<rect x="22" y="21" width="1" height="1" fill="#FFFFFF" />
<rect x="8" y="22" width="1" height="1" fill="#FFFFFF" />
<rect x="9" y="22" width="1" height="1" fill="#FFFFFF" />
<rect x="11" y="22" width="1" height="1" fill="#FFFFFF" />
<rect x="12" y="22" width="1" height="1" fill="#FFFFFF" />
<rect x="13" y="22" width="1" height="1" fill="#FFFFFF" />
<rect x="14" y="22" width="1" height="1" fill="#FFFFFF" />
<rect x="15" y="22" width="1" height="1" fill="#FFFFFF" />
<rect x="16" y="22" width="1" height="1" fill="#FFFFFF" />
<rect x="17" y="22" width="1" height="1" fill="#FFFFFF" />
<rect x="18" y="22" width="1" height="1" fill="#FFFFFF" />
<rect x="19" y="22" width="1" height="1" fill="#FFFFFF" />
<rect x="21" y="22" width="1" height="1" fill="#FFFFFF" />
<rect x="22" y="22" width="1" height="1" fill="#FFFFFF" />
<rect x="8" y="23" width="1" height="1" fill="#FFFFFF" />
<rect x="9" y="23" width="1" height="1" fill="#FFFFFF" />
<rect x="11" y="23" width="1" height="1" fill="#FFFFFF" />
<rect x="12" y="23" width="1" height="1" fill="#FFFFFF" />
<rect x="13" y="23" width="1" height="1" fill="#FFFFFF" />
<rect x="14" y="23" width="1" height="1" fill="#FFFFFF" />
<rect x="15" y="23" width="1" height="1" fill="#FFFFFF" />
<rect x="16" y="23" width="1" height="1" fill="#FFFFFF" />
<rect x="17" y="23" width="1" height="1" fill="#FFFFFF" />
<rect x="18" y="23" width="1" height="1" fill="#FFFFFF" />
<rect x="19" y="23" width="1" height="1" fill="#FFFFFF" />
<rect x="21" y="23" width="1" height="1" fill="#FFFFFF" />
<rect x="22" y="23" width="1" height="1" fill="#FFFFFF" />
<rect x="8" y="24" width="1" height="1" fill="#FFFFFF" />
<rect x="9" y="24" width="1" height="1" fill="#FFFFFF" />
<rect x="10" y="24" width="1" height="1" fill="#FFFFFF" />
<rect x="20" y="24" width="1" height="1" fill="#FFFFFF" />
<rect x="21" y="24" width="1" height="1" fill="#FFFFFF" />
<rect x="22" y="24" width="1" height="1" fill="#FFFFFF" />
<rect x="7" y="25" width="1" height="1" fill="#FFFFFF" />
<rect x="8" y="25" width="1" height="1" fill="#FFFFFF" />
<rect x="9" y="25" width="1" height="1" fill="#FFFFFF" />
<rect x="10" y="25" width="1" height="1" fill="#FFFFFF" />
<rect x="11" y="25" width="1" height="1" fill="#FFFFFF" />
<rect x="12" y="25" width="1" height="1" fill="#FFFFFF" />
<rect x="13" y="25" width="1" height="1" fill="#FFFFFF" />
<rect x="14" y="25" width="1" height="1" fill="#FFFFFF" />
<rect x="15" y="25" width="1" height="1" fill="#FFFFFF" />
<rect x="16" y="25" width="1" height="1" fill="#FFFFFF" />
<rect x="17" y="25" width="1" height="1" fill="#FFFFFF" />
<rect x="18" y="25" width="1" height="1" fill="#FFFFFF" />
<rect x="19" y="25" width="1" height="1" fill="#FFFFFF" />
<rect x="20" y="25" width="1" height="1" fill="#FFFFFF" />
<rect x="21" y="25" width="1" height="1" fill="#FFFFFF" />
<rect x="22" y="25" width="1" height="1" fill="#FFFFFF" />
<rect x="23" y="25" width="1" height="1" fill="#FFFFFF" />
<rect x="7" y="26" width="1" height="1" fill="#FFFFFF" />
<rect x="8" y="26" width="1" height="1" fill="#FFFFFF" />
<rect x="22" y="26" width="1" height="1" fill="#FFFFFF" />
<rect x="23" y="26" width="1" height="1" fill="#FFFFFF" />
<rect x="8" y="27" width="1" height="1" fill="#FFFFFF" />
<rect x="9" y="27" width="1" height="1" fill="#FFFFFF" />
<rect x="10" y="27" width="1" height="1" fill="#FFFFFF" />
<rect x="11" y="27" width="1" height="1" fill="#FFFFFF" />
<rect x="12" y="27" width="1" height="1" fill="#FFFFFF" />
<rect x="13" y="27" width="1" height="1" fill="#FFFFFF" />
<rect x="14" y="27" width="1" height="1" fill="#FFFFFF" />
<rect x="15" y="27" width="1" height="1" fill="#FFFFFF" />
<rect x="16" y="27" width="1" height="1" fill="#FFFFFF" />
<rect x="17" y="27" width="1" height="1" fill="#FFFFFF" />
<rect x="18" y="27" width="1" height="1" fill="#FFFFFF" />
<rect x="19" y="27" width="1" height="1" fill="#FFFFFF" />
<rect x="20" y="27" width="1" height="1" fill="#FFFFFF" />
<rect x="21" y="27" width="1" height="1" fill="#FFFFFF" />
<rect x="22" y="27" width="1" height="1" fill="#FFFFFF" />
</svg>